<svg width="30" height="30" viewBox="0 0 30 30" fill="none" xmlns="http://www.w3.org/2000/svg">
<g clip-path="url(#clip0_122_11)">
<path d="M21.1814 0.0700405C21.4743 0.193087 21.6853 0.456759 21.7439 0.767306L22.9099 7.08957L29.2321 8.24973C29.5427 8.30832 29.8064 8.51926 29.9294 8.81223C30.0525 9.1052 30.0173 9.43918 29.8357 9.70285L26.1853 14.9997L29.8357 20.2907C30.0173 20.5544 30.0525 20.8884 29.9294 21.1814C29.8064 21.4743 29.5427 21.6853 29.2321 21.7439L22.9099 22.9099L21.7439 29.2321C21.6853 29.5427 21.4743 29.8064 21.1814 29.9294C20.8884 30.0525 20.5544 30.0173 20.2907 29.8357L14.9997 26.1853L9.70871 29.8357C9.44504 30.0173 9.11106 30.0525 8.81809 29.9294C8.52512 29.8064 8.31418 29.5427 8.25559 29.2321L7.08957 22.9099L0.767306 21.7439C0.456759 21.6853 0.193087 21.4743 0.0700405 21.1814C-0.0530064 20.8884 -0.0178501 20.5544 0.16379 20.2907L3.81418 14.9997L0.16379 9.70871C-0.0178501 9.44504 -0.0530064 9.11106 0.0700405 8.81809C0.193087 8.52512 0.456759 8.31418 0.767306 8.25559L7.08957 7.08957L8.25559 0.767306C8.31418 0.456759 8.52512 0.193087 8.81809 0.0700405C9.11106 -0.0530064 9.44504 -0.0178501 9.70871 0.16379L14.9997 3.81418L20.2907 0.16379C20.5544 -0.0178501 20.8884 -0.0530064 21.1814 0.0700405ZM9.37473 14.9997C9.37473 13.5079 9.96736 12.0771 11.0223 11.0223C12.0771 9.96736 13.5079 9.37473 14.9997 9.37473C16.4916 9.37473 17.9223 9.96736 18.9772 11.0223C20.0321 12.0771 20.6247 13.5079 20.6247 14.9997C20.6247 16.4916 20.0321 17.9223 18.9772 18.9772C17.9223 20.0321 16.4916 20.6247 14.9997 20.6247C13.5079 20.6247 12.0771 20.0321 11.0223 18.9772C9.96736 17.9223 9.37473 16.4916 9.37473 14.9997ZM22.4997 14.9997C22.4997 13.0106 21.7096 11.1029 20.303 9.69643C18.8965 8.2899 16.9889 7.49973 14.9997 7.49973C13.0106 7.49973 11.1029 8.2899 9.69643 9.69643C8.2899 11.1029 7.49973 13.0106 7.49973 14.9997C7.49973 16.9889 8.2899 18.8965 9.69643 20.303C11.1029 21.7096 13.0106 22.4997 14.9997 22.4997C16.9889 22.4997 18.8965 21.7096 20.303 20.303C21.7096 18.8965 22.4997 16.9889 22.4997 14.9997Z" fill="#E2E2E2"/>
</g>
<defs>
<clipPath id="clip0_122_11">
<rect width="30" height="30" fill="white"/>
</clipPath>
</defs>
</svg>
