<svg width="179" height="39" viewBox="0 0 179 39" fill="none" xmlns="http://www.w3.org/2000/svg">
<g clip-path="url(#clip0_248_348)">
<path d="M7 0H24V3.5C24 5.433 22.3087 7 20.2222 7H7V0Z" fill="#D9D9D9"/>
<path fill-rule="evenodd" clip-rule="evenodd" d="M15.0935 13.0955V16.522L10 11.4262V10.5909C10 9.15995 11.1595 8 12.5899 8H15.0935V13.0955ZM15.0935 13.0955V8H23.6403V10.5045C23.6403 11.9355 22.4808 13.0955 21.0504 13.0955H15.0935ZM15.0935 20.7989V25.2726H12.5899C11.1596 25.2726 10 24.1127 10 22.6817V15.7035L15.0935 20.7989Z" fill="url(#paint0_linear_248_348)"/>
<path d="M16 26H7V33H16V26Z" fill="#D9D9D9"/>
<path d="M3.26531 33C1.46193 33 0 31.8056 0 30.3321V13L8 19.5361V33H3.26531Z" fill="#D9D9D9"/>
<path d="M0 8.29864L2.50251e-09 3.95455C3.62481e-09 2.04665 1.54606 0.5 3.45323 0.5L8.46043 0.5V16.65L0 8.29864Z" fill="#D9D9D9"/>
</g>
<path d="M38.0469 29.2344C35.724 29.2344 33.9219 28.5781 32.6406 27.2656C31.3594 25.9531 30.7188 24.1042 30.7188 21.7188V19.9844C30.7188 17.6198 31.3594 15.7917 32.6406 14.5C33.9219 13.1979 35.724 12.5469 38.0469 12.5469C39.3802 12.5469 40.5833 12.7708 41.6562 13.2188C42.7396 13.6667 43.599 14.3073 44.2344 15.1406L41.4688 17.8281C41.0833 17.4635 40.6198 17.1823 40.0781 16.9844C39.5469 16.776 38.9896 16.6719 38.4062 16.6719C37.3229 16.6719 36.4844 16.9635 35.8906 17.5469C35.2969 18.1198 35 18.9323 35 19.9844V21.7188C35 22.8021 35.2969 23.6406 35.8906 24.2344C36.4844 24.8177 37.3229 25.1094 38.4062 25.1094C38.9896 25.1094 39.5469 25 40.0781 24.7812C40.6198 24.5625 41.0833 24.25 41.4688 23.8438L44.2344 26.6875C43.599 27.5 42.7396 28.1302 41.6562 28.5781C40.5833 29.0156 39.3802 29.2344 38.0469 29.2344ZM47.125 29V12.7812H51.7188V29H47.125ZM56.25 17.2969C56.0521 17.0885 55.7969 16.9323 55.4844 16.8281C55.1823 16.724 54.8333 16.6719 54.4375 16.6719C53.5729 16.6719 52.901 16.9531 52.4219 17.5156C51.9531 18.0677 51.7188 18.8385 51.7188 19.8281L51.3906 15.6094C51.8385 14.651 52.4167 13.901 53.125 13.3594C53.8438 12.8177 54.6302 12.5469 55.4844 12.5469C56.1615 12.5469 56.7708 12.6562 57.3125 12.875C57.8646 13.0833 58.3438 13.3958 58.75 13.8125L56.25 17.2969ZM60.5469 10.5625V6.28125H64.8281V10.5625H60.5469ZM60.5469 29V12.7812H64.8281V29H60.5469ZM75.0156 29.2344C73.5573 29.2344 72.1667 29.0417 70.8438 28.6562C69.5312 28.2604 68.4115 27.7135 67.4844 27.0156L70.125 23.7188C70.9062 24.2188 71.724 24.6042 72.5781 24.875C73.4323 25.1458 74.2448 25.2812 75.0156 25.2812C76.0156 25.2812 76.7917 25.1719 77.3438 24.9531C77.8958 24.724 78.1719 24.4115 78.1719 24.0156C78.1719 23.5365 77.9792 23.2083 77.5938 23.0312C77.2188 22.8542 76.724 22.7396 76.1094 22.6875C75.4948 22.625 74.8438 22.5469 74.1562 22.4531C73.4583 22.3594 72.7656 22.25 72.0781 22.125C71.401 21.9896 70.7812 21.776 70.2188 21.4844C69.6562 21.1823 69.2083 20.7344 68.875 20.1406C68.5417 19.5365 68.375 18.7188 68.375 17.6875C68.375 16.0521 68.9531 14.7865 70.1094 13.8906C71.2656 12.9948 72.901 12.5469 75.0156 12.5469C76.2552 12.5469 77.474 12.7292 78.6719 13.0938C79.8802 13.4583 80.9583 13.974 81.9062 14.6406L79.3594 17.75C78.651 17.3542 77.9115 17.0469 77.1406 16.8281C76.3698 16.6094 75.6302 16.5 74.9219 16.5C74.0573 16.5 73.3854 16.599 72.9062 16.7969C72.4271 16.9844 72.1875 17.2604 72.1875 17.625C72.1875 17.9375 72.3542 18.1719 72.6875 18.3281C73.0208 18.4844 73.4583 18.599 74 18.6719C74.5417 18.7344 75.125 18.8021 75.75 18.875C76.4688 18.9583 77.1927 19.0625 77.9219 19.1875C78.651 19.3021 79.3177 19.5156 79.9219 19.8281C80.5365 20.1406 81.0312 20.6146 81.4062 21.25C81.7812 21.8854 81.9688 22.7604 81.9688 23.875C81.9688 25.5729 81.3594 26.8906 80.1406 27.8281C78.9323 28.7656 77.224 29.2344 75.0156 29.2344ZM89.6875 6.28125V23.6406C89.6875 24.026 89.7969 24.3281 90.0156 24.5469C90.2448 24.7656 90.5677 24.875 90.9844 24.875H91.7031V29H89.5156C88.2135 29 87.2031 28.625 86.4844 27.875C85.7656 27.125 85.4062 26.0677 85.4062 24.7031V6.28125H89.6875ZM101.641 29.2344C99.2865 29.2344 97.4583 28.6042 96.1562 27.3438C94.8646 26.0729 94.2188 24.2812 94.2188 21.9688V20.1406C94.2188 17.724 94.8385 15.8542 96.0781 14.5312C97.3281 13.2083 99.0885 12.5469 101.359 12.5469C103.505 12.5469 105.161 13.3385 106.328 14.9219C107.505 16.4948 108.094 18.7135 108.094 21.5781V22.6406H97V19.75H104.188L104.141 19.375C104.026 18.4479 103.734 17.7292 103.266 17.2188C102.797 16.6979 102.161 16.4375 101.359 16.4375C100.328 16.4375 99.526 16.7448 98.9531 17.3594C98.3906 17.974 98.1094 18.8438 98.1094 19.9688V22.0312C98.1094 23.1354 98.4167 23.9896 99.0312 24.5938C99.6562 25.1979 100.526 25.5 101.641 25.5C102.214 25.5 102.781 25.401 103.344 25.2031C103.906 24.9948 104.417 24.7031 104.875 24.3281L107.672 26.8125C106.828 27.5833 105.88 28.1823 104.828 28.6094C103.776 29.026 102.714 29.2344 101.641 29.2344ZM118.375 29.2344C116.146 29.2344 114.422 28.6198 113.203 27.3906C111.984 26.151 111.375 24.4115 111.375 22.1719V19.5312C111.375 17.3125 111.984 15.5938 113.203 14.375C114.422 13.1562 116.146 12.5469 118.375 12.5469C120.604 12.5469 122.328 13.1562 123.547 14.375C124.766 15.5938 125.375 17.3125 125.375 19.5312V22.2188C125.375 24.4479 124.766 26.1771 123.547 27.4062C122.328 28.625 120.604 29.2344 118.375 29.2344ZM118.359 25.1094C119.224 25.1094 119.896 24.8594 120.375 24.3594C120.854 23.849 121.094 23.1354 121.094 22.2188V19.5312C121.094 18.625 120.854 17.9219 120.375 17.4219C119.896 16.9219 119.224 16.6719 118.359 16.6719C117.505 16.6719 116.839 16.9219 116.359 17.4219C115.891 17.9219 115.656 18.625 115.656 19.5312V22.2188C115.656 23.1354 115.891 23.849 116.359 24.3594C116.839 24.8594 117.505 25.1094 118.359 25.1094Z" fill="#D9D9D9"/>
<path d="M138.938 29V6.28125H143.219V29H138.938ZM135.172 29.2344C133.443 29.2344 132.099 28.625 131.141 27.4062C130.193 26.1771 129.719 24.4479 129.719 22.2188V19.625C129.719 17.375 130.193 15.6354 131.141 14.4062C132.099 13.1667 133.443 12.5469 135.172 12.5469C136.036 12.5469 136.823 12.8073 137.531 13.3281C138.25 13.8385 138.828 14.5677 139.266 15.5156L138.938 19.1094C138.938 18.5573 138.844 18.0885 138.656 17.7031C138.469 17.3177 138.193 17.026 137.828 16.8281C137.474 16.6198 137.042 16.5156 136.531 16.5156C135.729 16.5156 135.104 16.7917 134.656 17.3438C134.219 17.8854 134 18.651 134 19.6406V22.2188C134 23.1875 134.219 23.9375 134.656 24.4688C135.104 25 135.729 25.2656 136.531 25.2656C137.042 25.2656 137.474 25.1667 137.828 24.9688C138.193 24.7708 138.469 24.4844 138.656 24.1094C138.844 23.7344 138.938 23.2812 138.938 22.75L139.156 26.4531C138.833 27.3385 138.323 28.026 137.625 28.5156C136.938 28.9948 136.12 29.2344 135.172 29.2344ZM154.391 29.2344C152.036 29.2344 150.208 28.6042 148.906 27.3438C147.615 26.0729 146.969 24.2812 146.969 21.9688V20.1406C146.969 17.724 147.589 15.8542 148.828 14.5312C150.078 13.2083 151.839 12.5469 154.109 12.5469C156.255 12.5469 157.911 13.3385 159.078 14.9219C160.255 16.4948 160.844 18.7135 160.844 21.5781V22.6406H149.75V19.75H156.938L156.891 19.375C156.776 18.4479 156.484 17.7292 156.016 17.2188C155.547 16.6979 154.911 16.4375 154.109 16.4375C153.078 16.4375 152.276 16.7448 151.703 17.3594C151.141 17.974 150.859 18.8438 150.859 19.9688V22.0312C150.859 23.1354 151.167 23.9896 151.781 24.5938C152.406 25.1979 153.276 25.5 154.391 25.5C154.964 25.5 155.531 25.401 156.094 25.2031C156.656 24.9948 157.167 24.7031 157.625 24.3281L160.422 26.8125C159.578 27.5833 158.63 28.1823 157.578 28.6094C156.526 29.026 155.464 29.2344 154.391 29.2344ZM169.859 22.9531L173.203 12.7812H177.469L171.375 29H168.344L162.25 12.7812H166.516L169.859 22.9531Z" fill="url(#paint1_linear_248_348)"/>
<defs>
<linearGradient id="paint0_linear_248_348" x1="23.2518" y1="7.99991" x2="10.9004" y2="24.7068" gradientUnits="userSpaceOnUse">
<stop stop-color="#FF6335"/>
<stop offset="0.995581" stop-color="#FF1452"/>
</linearGradient>
<linearGradient id="paint1_linear_248_348" x1="143.83" y1="5.51087" x2="143.83" y2="34.337" gradientUnits="userSpaceOnUse">
<stop stop-color="#FF1C50"/>
<stop offset="1" stop-color="#FF6236"/>
</linearGradient>
<clipPath id="clip0_248_348">
<rect width="24" height="38" fill="white" transform="translate(0 0.5)"/>
</clipPath>
</defs>
</svg>
